<svg width="150" height="32" viewBox="0 0 150 32" fill="none" xmlns="http://www.w3.org/2000/svg">
<rect width="150" height="32" fill="#374863"/>
<path d="M13.49 7.18H18.49V7.58H8V7.18H12.94V6.31H9.17V5.92H12.94V5.14H8.8V4.74H12.94V4H13.49V4.74H17.8V5.14H13.49V5.92H17.3V6.31H13.49V7.18ZM16.81 8.29V12.2C16.8227 12.301 16.8022 12.4033 16.7517 12.4917C16.7012 12.5801 16.6234 12.6497 16.53 12.69L16.49 12.74C15.8591 12.8073 15.2242 12.8307 14.59 12.81C14.5349 12.6662 14.4645 12.5288 14.38 12.4C15.22 12.4 15.79 12.4 16.07 12.4C16.35 12.4 16.3 12.29 16.31 12.2V11.2H10.32V12.84H9.76V8.29H16.81ZM16.23 8.69H10.32V9.54H16.26L16.23 8.69ZM10.29 10.79H16.23V9.92H10.32L10.29 10.79Z" fill="#FFFFFC"/>
<path d="M37.9599 12.24H42.9599V12.67H32.4099V12.24H37.4099V9.98001H33.7099V9.54001H41.9499V9.98001H37.9499L37.9599 12.24ZM38.6899 5.74001H36.5999C36.5074 6.58036 36.113 7.35855 35.4899 7.93001C34.7001 8.47215 33.791 8.81524 32.8399 8.93001C32.7694 8.77703 32.663 8.64326 32.5299 8.54001C33.5785 8.45505 34.5666 8.01397 35.3299 7.29001C35.6897 6.84369 35.9213 6.30789 35.9999 5.74001H33.2699V7.08001H32.6899V5.26001H37.3699V4.17001H37.9599V5.26001H42.7099V6.84001H42.1399V5.74001H39.2599V7.86001C39.2599 8.00001 39.3199 8.08001 39.4299 8.10001C39.563 8.11256 39.6969 8.11256 39.8299 8.10001H41.6599C41.8599 8.10001 41.9899 8.10001 42.0499 7.94001C42.1065 7.72106 42.1367 7.49613 42.1399 7.27001C42.3097 7.34856 42.4874 7.40889 42.6699 7.45001C42.6199 7.97001 42.4999 8.30001 42.2899 8.45001C42.1115 8.53201 41.916 8.56974 41.7199 8.56001H39.8099C39.2599 8.56001 38.9199 8.48001 38.8099 8.31001C38.7299 8.17772 38.6916 8.0244 38.6999 7.87001L38.6899 5.74001Z" fill="#FFFFFC"/>
<path d="M61.0899 5.46999V5.88999H56.6399V5.46999H61.0899ZM57.1899 7.16999V6.73999H60.6799V7.14999L57.1899 7.16999ZM57.1899 8.43999V8.03999H60.6799V8.43999H57.1899ZM60.6799 9.32999V12.09H57.6799V12.57H57.1899V9.32999H60.6799ZM60.6799 4.21999V4.61999H57.2599V4.21999H60.6799ZM60.1499 9.73999H57.6999V11.67H60.1499V9.73999ZM62.6999 4.60999V5.35999C62.7056 5.8757 62.5624 6.38212 62.2875 6.81846C62.0126 7.25481 61.6176 7.60257 61.1499 7.81999C61.0296 7.69112 60.8915 7.58 60.7399 7.48999C61.158 7.31079 61.514 7.0121 61.763 6.63139C62.0121 6.25069 62.1432 5.80492 62.1399 5.34999V4.17999H65.7399V6.67999C65.7399 6.80999 65.7399 6.87999 65.8799 6.88999H66.8099C66.8609 6.89532 66.9122 6.88346 66.9557 6.85628C66.9992 6.8291 67.0323 6.78817 67.0499 6.73999C67.1053 6.43666 67.1254 6.12795 67.1099 5.81999C67.2733 5.90342 67.4488 5.96078 67.6299 5.98999C67.6299 6.67999 67.4999 7.09999 67.3199 7.24999C67.1912 7.32979 67.0411 7.36819 66.8899 7.35999H65.9599C65.5799 7.35999 65.3499 7.27999 65.2599 7.11999C65.2067 6.98664 65.1828 6.84339 65.1899 6.69999V4.60999H62.6999ZM66.4899 8.03999L66.8399 8.18999C66.4281 9.34106 65.6788 10.3412 64.6899 11.06C65.6044 11.6472 66.6226 12.0545 67.6899 12.26C67.5443 12.3804 67.4103 12.5144 67.2899 12.66C66.2227 12.4071 65.2076 11.9706 64.2899 11.37C63.3237 11.9836 62.2576 12.4235 61.1399 12.67C61.0485 12.5136 60.9338 12.372 60.7999 12.25C61.8725 12.0258 62.8979 11.6163 63.8299 11.04C63.0351 10.4068 62.4013 9.59469 61.9799 8.66999L62.4899 8.53999C62.8879 9.40618 63.4922 10.1616 64.2499 10.74C65.0566 10.1662 65.6981 9.39023 66.1099 8.48999H61.2399V8.05999H66.3699L66.4899 8.03999Z" fill="#FFFFFC"/>
<path d="M81.0801 6.04V5.62H85.7301V6.04H81.0801ZM81.6301 7.33V6.92H85.3001V7.33H81.6301ZM81.6301 8.6V8.2H85.3001V8.6H81.6301ZM85.2501 9.49V12.25H82.1501V12.74H81.6301V9.49H85.2501ZM85.2501 4.38V4.74H81.6501V4.38H85.2501ZM84.6601 9.9H82.1001V11.83H84.6601V9.9ZM92.0701 7.36V7.82H89.2501V12.82H88.6701V7.82H85.6701V7.36H88.6701V4.03H89.2501V7.36H92.0701Z" fill="#FFFFFC"/>
<path d="M9.48999 26.05V17.65H14.06C14.6163 17.6371 15.1707 17.7182 15.7 17.89C16.0954 18.0293 16.4424 18.2792 16.7 18.61C16.9471 18.9342 17.0774 19.3324 17.07 19.74C17.0767 19.9567 17.0404 20.1725 16.9631 20.375C16.8859 20.5776 16.7693 20.7628 16.62 20.92C16.2747 21.2784 15.8281 21.5227 15.34 21.62V21.41C15.7081 21.4741 16.063 21.5991 16.39 21.78C16.7037 21.9543 16.9711 22.2012 17.17 22.5C17.3836 22.823 17.4951 23.2028 17.49 23.59C17.5106 23.9888 17.4243 24.3858 17.24 24.74C17.0557 25.0441 16.8064 25.3036 16.51 25.5C16.2021 25.6964 15.8644 25.8416 15.51 25.93C15.1424 26.0132 14.7669 26.0568 14.39 26.06L9.48999 26.05ZM10.43 21.19H14.28C14.6206 21.2025 14.9603 21.1481 15.28 21.03C15.5294 20.9447 15.7484 20.7883 15.91 20.58C16.0628 20.3751 16.1436 20.1255 16.14 19.87C16.1518 19.6696 16.1075 19.4699 16.0122 19.2932C15.9168 19.1166 15.774 18.97 15.6 18.87C15.1625 18.6418 14.6731 18.5315 14.18 18.55H10.42L10.43 21.19ZM10.43 25.14H14.34C14.7296 25.1511 15.1182 25.097 15.49 24.98C15.7987 24.888 16.0734 24.7071 16.28 24.46C16.4829 24.2203 16.5898 23.9139 16.58 23.6C16.587 23.4432 16.5613 23.2866 16.5045 23.1402C16.4477 22.9939 16.361 22.861 16.25 22.75C16.0181 22.5175 15.728 22.3517 15.41 22.27C15.0574 22.1594 14.6895 22.1054 14.32 22.11H10.42L10.43 25.14Z" fill="#FFFFFC"/>
<path d="M21.49 26.05V17.17H22.39V26.05H21.49Z" fill="#FFFFFC"/>
<path d="M30.1199 26.17C29.5818 26.1838 29.0499 26.0525 28.5799 25.79C28.1491 25.5433 27.8011 25.1744 27.5799 24.73C27.3408 24.2207 27.2243 23.6624 27.2399 23.1V19.74H28.1499V22.74C28.1361 23.1952 28.2179 23.6483 28.3899 24.07C28.5313 24.4219 28.7889 24.7148 29.1199 24.9C29.4904 25.1022 29.908 25.2023 30.3299 25.19C30.6711 25.1873 31.0092 25.1264 31.3299 25.01C31.6463 24.8961 31.9382 24.723 32.1899 24.5C32.4304 24.2903 32.6275 24.0355 32.7699 23.75C32.9123 23.4645 32.9843 23.149 32.9799 22.83V19.74H33.8799V26.01H32.9899V24.52L33.1399 24.43C33.0194 24.7316 32.8271 24.9993 32.5799 25.21C32.2666 25.491 31.9037 25.7114 31.5099 25.86C31.0712 26.0528 30.599 26.1582 30.1199 26.17Z" fill="#FFFFFC"/>
<path d="M41.3001 26.17C40.6213 26.1711 39.9466 26.0665 39.3001 25.86C38.736 25.6891 38.2238 25.3797 37.8101 24.96L38.4401 24.34C38.7869 24.6714 39.199 24.9268 39.6501 25.09C40.1458 25.2743 40.6712 25.3659 41.2001 25.36C41.4798 25.3754 41.7603 25.3754 42.0401 25.36C42.2907 25.3323 42.5384 25.2821 42.7801 25.21C42.982 25.156 43.1675 25.0529 43.3201 24.91C43.3842 24.8477 43.4349 24.773 43.4693 24.6905C43.5037 24.608 43.521 24.5194 43.5201 24.43C43.5201 24.13 43.2901 23.9 42.8301 23.74C42.5722 23.6507 42.3082 23.5806 42.0401 23.53C41.7301 23.46 41.3901 23.39 41.0401 23.34C40.5001 23.24 40.0401 23.14 39.6201 23.05C39.2686 22.9774 38.931 22.8491 38.6201 22.67C38.4404 22.5396 38.2904 22.3726 38.1801 22.18C38.0676 21.9642 38.0125 21.7232 38.0201 21.48C38.015 21.215 38.0957 20.9554 38.2501 20.74C38.4226 20.5049 38.6444 20.3103 38.9001 20.17C39.2113 19.9915 39.5488 19.8633 39.9001 19.79C40.3047 19.7071 40.717 19.6668 41.1301 19.67C41.5291 19.6737 41.9271 19.7105 42.3201 19.78C42.723 19.8568 43.118 19.9706 43.5001 20.12C43.8612 20.2608 44.1985 20.4564 44.5001 20.7L43.9901 21.35C43.742 21.1663 43.4736 21.012 43.1901 20.89C42.8668 20.7488 42.5323 20.6351 42.1901 20.55C41.8624 20.4722 41.5269 20.4319 41.1901 20.43C40.932 20.4339 40.6746 20.4573 40.4201 20.5C40.1735 20.53 39.9317 20.5904 39.7001 20.68C39.51 20.746 39.3362 20.8517 39.1901 20.99C39.128 21.0455 39.0782 21.1132 39.0438 21.189C39.0094 21.2647 38.9911 21.3468 38.9901 21.43C38.9816 21.4905 38.9862 21.5522 39.0034 21.6108C39.0206 21.6694 39.0502 21.7237 39.0901 21.77C39.1703 21.8784 39.2771 21.9645 39.4001 22.02C39.649 22.1498 39.9149 22.2441 40.1901 22.3L41.3501 22.51C41.8201 22.58 42.2501 22.66 42.6601 22.75C43.0081 22.8144 43.3449 22.9289 43.6601 23.09C43.9049 23.2073 44.1202 23.3782 44.2901 23.59C44.432 23.7803 44.5059 24.0127 44.5001 24.25C44.5131 24.6455 44.3693 25.0301 44.1001 25.32C43.7973 25.6323 43.4181 25.8599 43.0001 25.98C42.4478 26.1369 41.8733 26.2011 41.3001 26.17Z" fill="#FFFFFC"/>
<path d="M57.32 26.17C56.788 26.1734 56.2576 26.113 55.74 25.99C55.2667 25.8748 54.8122 25.6929 54.39 25.45C53.9688 25.2147 53.5874 24.9143 53.26 24.56L53.84 23.78C54.2789 24.2652 54.8165 24.6509 55.4167 24.9113C56.0169 25.1718 56.6658 25.3009 57.32 25.29C57.8066 25.2961 58.2916 25.2321 58.76 25.1C59.1335 25.0016 59.4769 24.8127 59.76 24.55C59.8845 24.4346 59.9822 24.2933 60.0461 24.1361C60.11 23.9789 60.1387 23.8095 60.13 23.64C60.1394 23.4253 60.0681 23.2148 59.93 23.05C59.7738 22.893 59.5864 22.7704 59.38 22.69C59.1382 22.5912 58.8869 22.5174 58.63 22.47C58.3722 22.4169 58.1119 22.3768 57.85 22.35C57.59 22.35 57.38 22.3 57.19 22.27C56.7 22.2 56.24 22.11 55.81 22.01C55.417 21.9335 55.0366 21.8022 54.68 21.62C54.3755 21.4674 54.1116 21.2446 53.91 20.97C53.7159 20.6735 53.6181 20.3242 53.63 19.97C53.6277 19.6184 53.721 19.2727 53.9 18.97C54.093 18.6655 54.3529 18.4089 54.66 18.22C55.0292 17.999 55.4308 17.837 55.85 17.74C56.3124 17.633 56.7854 17.5793 57.26 17.58C57.7591 17.5752 58.2566 17.6357 58.74 17.76C59.1631 17.8646 59.5678 18.0332 59.94 18.26C60.287 18.4727 60.592 18.7473 60.84 19.07L60.23 19.77C59.7476 19.2094 59.1113 18.8026 58.4 18.6C58.0222 18.4965 57.6318 18.4461 57.24 18.45C56.8033 18.4438 56.3683 18.5045 55.95 18.63C55.6126 18.7202 55.301 18.888 55.04 19.12C54.8464 19.3011 54.7269 19.5477 54.7048 19.8119C54.6826 20.0761 54.7593 20.3391 54.92 20.55C55.0949 20.7367 55.3105 20.8804 55.55 20.97C55.8512 21.0808 56.1628 21.1612 56.48 21.21L57.63 21.39L58.89 21.57C59.2878 21.6413 59.6767 21.7553 60.05 21.91C60.3738 22.0496 60.6612 22.2617 60.89 22.53C61.112 22.8448 61.2213 23.2254 61.2 23.61C61.2058 24.1028 61.0356 24.5815 60.72 24.96C60.3612 25.3783 59.8941 25.6897 59.37 25.86C58.7111 26.0865 58.0165 26.1915 57.32 26.17Z" fill="#FFFFFC"/>
<path d="M65.3799 26.05V17.17H66.1999V26.05H65.3799ZM66.0399 24.35L66.1399 23.35L70.8499 19.74H72.1299L66.0399 24.35ZM71.1299 26.05L67.7299 22.43L68.3299 21.81L72.3299 26.05H71.1299Z" fill="#FFFFFC"/>
<path d="M77.49 28.81L79.14 25.87L79.21 26.67L75.21 19.78H76.21L78.49 23.74C78.73 24.18 78.94 24.58 79.12 24.93C79.2685 25.2316 79.389 25.5463 79.48 25.87L79.24 25.74C79.35 25.48 79.48 25.19 79.62 24.89C79.76 24.59 79.91 24.25 80.09 23.89L82.38 19.74H83.38L79.92 25.98L78.38 28.77L77.49 28.81Z" fill="#FFFFFC"/>
<path d="M96.1701 26.17C95.6414 26.1735 95.1143 26.113 94.6001 25.99C94.1237 25.8747 93.6659 25.693 93.2401 25.45C92.822 25.2145 92.444 24.9141 92.1201 24.56L92.6901 23.78C93.1457 24.2701 93.6971 24.6615 94.3101 24.93C94.9002 25.1719 95.5324 25.2942 96.1701 25.29C96.6568 25.2961 97.1417 25.2321 97.6101 25.1C97.983 25.0001 98.3261 24.8114 98.6101 24.55C98.733 24.4334 98.8296 24.2919 98.8934 24.1349C98.9572 23.978 98.9868 23.8093 98.9801 23.64C98.9909 23.4233 98.9154 23.2111 98.7701 23.05C98.6157 22.8908 98.4278 22.7678 98.2201 22.69C97.9793 22.5885 97.7276 22.5147 97.4701 22.47C97.2123 22.4169 96.952 22.3768 96.6901 22.35C96.4401 22.35 96.2201 22.3 96.0401 22.27C95.5501 22.2 95.0901 22.11 94.6601 22.01C94.2643 21.9318 93.8809 21.8006 93.5201 21.62C93.2186 21.467 92.958 21.2442 92.7601 20.97C92.5625 20.6746 92.4612 20.3253 92.4701 19.97C92.4678 19.6183 92.5612 19.2727 92.7401 18.97C92.9371 18.6652 93.2003 18.4088 93.5101 18.22C93.864 18.0063 94.2485 17.8478 94.6501 17.75C95.1127 17.6441 95.5856 17.5904 96.0601 17.59C96.5593 17.5839 97.057 17.6444 97.5401 17.77C97.9647 17.8701 98.3701 18.039 98.7401 18.27C99.0901 18.4825 99.3985 18.7569 99.6501 19.08L99.0401 19.78C98.7997 19.5011 98.5201 19.2586 98.2101 19.06C97.9006 18.8618 97.5637 18.7102 97.2101 18.61C96.8321 18.5071 96.4418 18.4567 96.0501 18.46C95.6102 18.4545 95.172 18.5152 94.7501 18.64C94.4147 18.735 94.1041 18.9022 93.8401 19.13C93.7353 19.2246 93.6517 19.3404 93.5948 19.4696C93.5379 19.5989 93.509 19.7388 93.5101 19.88C93.4972 20.126 93.5755 20.3682 93.7301 20.56C93.9009 20.7468 94.1133 20.8907 94.3501 20.98C94.6521 21.0883 94.9634 21.1687 95.2801 21.22L96.4301 21.4C96.8501 21.4467 97.2701 21.5067 97.6901 21.58C98.0882 21.6499 98.4773 21.7639 98.8501 21.92C99.1768 22.0545 99.4653 22.2674 99.6901 22.54C99.9157 22.8535 100.028 23.2342 100.01 23.62C100.016 24.1128 99.8457 24.5915 99.5301 24.97C99.1713 25.3883 98.7042 25.6997 98.1801 25.87C97.5329 26.0871 96.8525 26.1886 96.1701 26.17Z" fill="#FFFFFC"/>
<path d="M103.07 20.65V19.74H108.65V20.61L103.07 20.65ZM105.24 26.05V17.74H106.14V26.01L105.24 26.05Z" fill="#FFFFFC"/>
<path d="M115.68 26.17C115.142 26.1838 114.61 26.0525 114.14 25.79C113.709 25.5433 113.361 25.1744 113.14 24.73C112.901 24.2207 112.784 23.6624 112.8 23.1V19.74H113.71V22.74C113.696 23.1952 113.778 23.6483 113.95 24.07C114.091 24.4219 114.349 24.7148 114.68 24.9C115.05 25.1022 115.468 25.2023 115.89 25.19C116.248 25.1931 116.604 25.1322 116.94 25.01C117.256 24.8961 117.548 24.723 117.8 24.5C118.04 24.2903 118.238 24.0355 118.38 23.75C118.522 23.4645 118.594 23.149 118.59 22.83V19.74H119.49V26.01H118.6V24.52L118.75 24.43C118.629 24.7316 118.437 24.9993 118.19 25.21C117.877 25.491 117.514 25.7114 117.12 25.86C116.666 26.0593 116.176 26.1648 115.68 26.17Z" fill="#FFFFFC"/>
<path d="M126.98 26.17C126.316 26.1823 125.658 26.0385 125.06 25.75C124.528 25.4904 124.08 25.0846 123.77 24.58C123.457 24.0723 123.294 23.4864 123.3 22.89C123.29 22.2948 123.457 21.71 123.78 21.21C124.109 20.7088 124.569 20.3075 125.11 20.05C125.715 19.7603 126.379 19.6164 127.05 19.63C127.471 19.6287 127.89 19.6757 128.3 19.77C128.649 19.8604 128.985 19.9948 129.3 20.17C129.572 20.3324 129.818 20.5347 130.03 20.77C130.221 20.9837 130.365 21.2361 130.45 21.51L130.15 21.43V17.17H131.05V26.05H130.16V24.28H130.4C130.323 24.5492 130.182 24.7961 129.99 25C129.775 25.2468 129.518 25.4534 129.23 25.61C128.918 25.7959 128.581 25.9373 128.23 26.03C127.821 26.1315 127.401 26.1786 126.98 26.17ZM127.18 25.29C127.722 25.3018 128.26 25.1995 128.76 24.99C129.184 24.8033 129.55 24.5063 129.82 24.13C130.077 23.7635 130.216 23.3276 130.22 22.88C130.225 22.445 130.088 22.0202 129.83 21.67C129.554 21.2994 129.19 21.0038 128.77 20.81C128.273 20.5888 127.734 20.4796 127.19 20.49C126.666 20.4815 126.146 20.5908 125.67 20.81C125.253 21.003 124.891 21.2989 124.62 21.67C124.37 22.0237 124.237 22.4469 124.24 22.88C124.245 23.3227 124.381 23.7541 124.63 24.12C124.884 24.4876 125.229 24.7837 125.63 24.98C126.116 25.1995 126.647 25.3055 127.18 25.29Z" fill="#FFFFFC"/>
<path d="M136.49 18.34C136.398 18.349 136.305 18.3386 136.217 18.3093C136.129 18.28 136.048 18.2325 135.98 18.17C135.92 18.1079 135.873 18.0342 135.842 17.9534C135.811 17.8726 135.797 17.7864 135.8 17.7C135.796 17.612 135.81 17.524 135.841 17.4415C135.872 17.359 135.919 17.2836 135.98 17.22C136.049 17.1572 136.129 17.1089 136.217 17.0779C136.304 17.047 136.397 17.0341 136.49 17.04C136.58 17.0335 136.671 17.0453 136.757 17.0745C136.843 17.1037 136.922 17.1497 136.99 17.21C137.052 17.2751 137.1 17.3522 137.131 17.4364C137.161 17.5207 137.175 17.6104 137.17 17.7C137.173 17.7849 137.159 17.8696 137.128 17.9487C137.097 18.0278 137.05 18.0997 136.99 18.16C136.923 18.222 136.844 18.2699 136.758 18.3009C136.672 18.3318 136.581 18.3451 136.49 18.34ZM136.04 26.05V19.74H136.94V26.01L136.04 26.05Z" fill="#FFFFFC"/>
<path d="M145.34 26.17C144.592 26.1855 143.849 26.0423 143.16 25.75C142.57 25.51 142.061 25.1078 141.69 24.59C141.34 24.0929 141.154 23.4982 141.16 22.89C141.153 22.2878 141.339 21.699 141.69 21.21C142.063 20.6948 142.572 20.2933 143.16 20.05C144.553 19.4904 146.108 19.4904 147.5 20.05C148.085 20.2985 148.592 20.6991 148.97 21.21C149.322 21.699 149.507 22.2878 149.5 22.89C149.507 23.4953 149.322 24.0872 148.97 24.58C148.589 25.0916 148.078 25.4921 147.49 25.74C146.812 26.0325 146.079 26.179 145.34 26.17ZM145.34 25.31C145.905 25.3182 146.466 25.2128 146.99 25C147.448 24.824 147.849 24.5267 148.15 24.14C148.417 23.7777 148.56 23.3397 148.56 22.89C148.56 22.4403 148.417 22.0023 148.15 21.64C147.848 21.2563 147.447 20.9623 146.99 20.79C145.922 20.3767 144.738 20.3767 143.67 20.79C143.213 20.9623 142.812 21.2563 142.51 21.64C142.244 22.0023 142.1 22.4403 142.1 22.89C142.1 23.3397 142.244 23.7777 142.51 24.14C142.814 24.5289 143.218 24.8264 143.68 25C144.207 25.2138 144.772 25.3193 145.34 25.31Z" fill="#FFFFFC"/>
<path d="M0 3H1V28H0V3Z" fill="#FFFFFC"/>
</svg>
