<svg width="150" height="25" viewBox="0 0 150 25" fill="none" xmlns="http://www.w3.org/2000/svg">
<path d="M13.49 3.18H18.49V3.58H8V3.18H12.94V2.31H9.17V1.92H12.94V1.14H8.8V0.74H12.94V0H13.49V0.74H17.8V1.14H13.49V1.92H17.3V2.31H13.49V3.18ZM16.81 4.29V8.2C16.8227 8.30098 16.8022 8.40334 16.7517 8.4917C16.7012 8.58006 16.6234 8.64965 16.53 8.69L16.49 8.74C15.8591 8.80734 15.2242 8.83073 14.59 8.81C14.5349 8.66621 14.4645 8.52875 14.38 8.4C15.22 8.4 15.79 8.4 16.07 8.4C16.35 8.4 16.3 8.29 16.31 8.2V7.2H10.32V8.84H9.76V4.29H16.81ZM16.23 4.69H10.32V5.54H16.26L16.23 4.69ZM10.29 6.79H16.23V5.92H10.32L10.29 6.79Z" fill="#FFFFFC"/>
<path d="M37.9599 8.24001H42.9599V8.67001H32.4099V8.24001H37.4099V5.98001H33.7099V5.54001H41.9499V5.98001H37.9499L37.9599 8.24001ZM38.6899 1.74001H36.5999C36.5074 2.58036 36.113 3.35855 35.4899 3.93001C34.7001 4.47215 33.791 4.81524 32.8399 4.93001C32.7694 4.77703 32.663 4.64326 32.5299 4.54001C33.5785 4.45505 34.5666 4.01397 35.3299 3.29001C35.6897 2.84369 35.9213 2.30789 35.9999 1.74001H33.2699V3.08001H32.6899V1.26001H37.3699V0.170013H37.9599V1.26001H42.7099V2.84001H42.1399V1.74001H39.2599V3.86001C39.2599 4.00001 39.3199 4.08001 39.4299 4.10001C39.563 4.11256 39.6969 4.11256 39.8299 4.10001H41.6599C41.8599 4.10001 41.9899 4.10001 42.0499 3.94001C42.1065 3.72106 42.1367 3.49613 42.1399 3.27001C42.3097 3.34856 42.4874 3.40889 42.6699 3.45001C42.6199 3.97001 42.4999 4.30001 42.2899 4.45001C42.1115 4.53201 41.916 4.56974 41.7199 4.56001H39.8099C39.2599 4.56001 38.9199 4.48001 38.8099 4.31001C38.7299 4.17772 38.6916 4.0244 38.6999 3.87001L38.6899 1.74001Z" fill="#FFFFFC"/>
<path d="M61.0899 1.46999V1.88999H56.6399V1.46999H61.0899ZM57.1899 3.16999V2.73999H60.6799V3.14999L57.1899 3.16999ZM57.1899 4.43999V4.03999H60.6799V4.43999H57.1899ZM60.6799 5.32999V8.08999H57.6799V8.56999H57.1899V5.32999H60.6799ZM60.6799 0.219993V0.619993H57.2599V0.219993H60.6799ZM60.1499 5.73999H57.6999V7.66999H60.1499V5.73999ZM62.6999 0.609993V1.35999C62.7056 1.8757 62.5624 2.38212 62.2875 2.81846C62.0126 3.25481 61.6176 3.60257 61.1499 3.81999C61.0296 3.69112 60.8915 3.58 60.7399 3.48999C61.158 3.31079 61.514 3.0121 61.763 2.63139C62.0121 2.25069 62.1432 1.80492 62.1399 1.34999V0.179993H65.7399V2.67999C65.7399 2.80999 65.7399 2.87999 65.8799 2.88999H66.8099C66.8609 2.89532 66.9122 2.88346 66.9557 2.85628C66.9992 2.8291 67.0323 2.78817 67.0499 2.73999C67.1053 2.43666 67.1254 2.12795 67.1099 1.81999C67.2733 1.90342 67.4488 1.96078 67.6299 1.98999C67.6299 2.67999 67.4999 3.09999 67.3199 3.24999C67.1912 3.32979 67.0411 3.36819 66.8899 3.35999H65.9599C65.5799 3.35999 65.3499 3.27999 65.2599 3.11999C65.2067 2.98664 65.1828 2.84339 65.1899 2.69999V0.609993H62.6999ZM66.4899 4.03999L66.8399 4.18999C66.4281 5.34106 65.6788 6.34123 64.6899 7.05999C65.6044 7.64725 66.6226 8.05454 67.6899 8.25999C67.5443 8.38043 67.4103 8.51436 67.2899 8.65999C66.2227 8.40715 65.2076 7.97065 64.2899 7.36999C63.3237 7.98359 62.2576 8.42355 61.1399 8.66999C61.0485 8.51359 60.9338 8.37198 60.7999 8.24999C61.8725 8.02577 62.8979 7.61631 63.8299 7.03999C63.0351 6.40675 62.4013 5.59469 61.9799 4.66999L62.4899 4.53999C62.8879 5.40618 63.4922 6.16157 64.2499 6.73999C65.0566 6.16623 65.6981 5.39023 66.1099 4.48999H61.2399V4.05999H66.3699L66.4899 4.03999Z" fill="#FFFFFC"/>
<path d="M81.0801 2.04V1.62H85.7301V2.04H81.0801ZM81.6301 3.33V2.92H85.3001V3.33H81.6301ZM81.6301 4.6V4.2H85.3001V4.6H81.6301ZM85.2501 5.49V8.25H82.1501V8.74H81.6301V5.49H85.2501ZM85.2501 0.379999V0.739999H81.6501V0.379999H85.2501ZM84.6601 5.9H82.1001V7.83H84.6601V5.9ZM92.0701 3.36V3.82H89.2501V8.82H88.6701V3.82H85.6701V3.36H88.6701V0.0299988H89.2501V3.36H92.0701Z" fill="#FFFFFC"/>
<path d="M9.48999 22.05V13.65H14.06C14.6163 13.6371 15.1707 13.7182 15.7 13.89C16.0954 14.0293 16.4424 14.2792 16.7 14.61C16.9471 14.9342 17.0774 15.3324 17.07 15.74C17.0767 15.9567 17.0404 16.1725 16.9631 16.375C16.8859 16.5776 16.7693 16.7628 16.62 16.92C16.2747 17.2784 15.8281 17.5227 15.34 17.62V17.41C15.7081 17.4741 16.063 17.5991 16.39 17.78C16.7037 17.9543 16.9711 18.2012 17.17 18.5C17.3836 18.823 17.4951 19.2028 17.49 19.59C17.5106 19.9888 17.4243 20.3858 17.24 20.74C17.0557 21.0441 16.8064 21.3036 16.51 21.5C16.2021 21.6964 15.8644 21.8416 15.51 21.93C15.1424 22.0132 14.7669 22.0568 14.39 22.06L9.48999 22.05ZM10.43 17.19H14.28C14.6206 17.2025 14.9603 17.1481 15.28 17.03C15.5294 16.9447 15.7484 16.7883 15.91 16.58C16.0628 16.3751 16.1436 16.1255 16.14 15.87C16.1518 15.6696 16.1075 15.4699 16.0122 15.2932C15.9168 15.1166 15.774 14.97 15.6 14.87C15.1625 14.6418 14.6731 14.5315 14.18 14.55H10.42L10.43 17.19ZM10.43 21.14H14.34C14.7296 21.1511 15.1182 21.097 15.49 20.98C15.7987 20.888 16.0734 20.7071 16.28 20.46C16.4829 20.2203 16.5898 19.9139 16.58 19.6C16.587 19.4432 16.5613 19.2866 16.5045 19.1402C16.4477 18.9939 16.361 18.861 16.25 18.75C16.0181 18.5175 15.728 18.3517 15.41 18.27C15.0574 18.1594 14.6895 18.1054 14.32 18.11H10.42L10.43 21.14Z" fill="#FFFFFC"/>
<path d="M21.49 22.05V13.17H22.39V22.05H21.49Z" fill="#FFFFFC"/>
<path d="M30.1199 22.17C29.5818 22.1838 29.0499 22.0525 28.5799 21.79C28.1491 21.5433 27.8011 21.1744 27.5799 20.73C27.3408 20.2207 27.2243 19.6624 27.2399 19.1V15.74H28.1499V18.74C28.1361 19.1952 28.2179 19.6483 28.3899 20.07C28.5313 20.4219 28.7889 20.7148 29.1199 20.9C29.4904 21.1022 29.908 21.2023 30.3299 21.19C30.6711 21.1873 31.0092 21.1264 31.3299 21.01C31.6463 20.8961 31.9382 20.723 32.1899 20.5C32.4304 20.2903 32.6275 20.0355 32.7699 19.75C32.9123 19.4645 32.9843 19.149 32.9799 18.83V15.74H33.8799V22.01H32.9899V20.52L33.1399 20.43C33.0194 20.7316 32.8271 20.9993 32.5799 21.21C32.2666 21.491 31.9037 21.7114 31.5099 21.86C31.0712 22.0528 30.599 22.1582 30.1199 22.17Z" fill="#FFFFFC"/>
<path d="M41.3001 22.17C40.6213 22.1711 39.9466 22.0665 39.3001 21.86C38.736 21.6891 38.2238 21.3797 37.8101 20.96L38.4401 20.34C38.7869 20.6714 39.199 20.9268 39.6501 21.09C40.1458 21.2743 40.6712 21.3659 41.2001 21.36C41.4798 21.3754 41.7603 21.3754 42.0401 21.36C42.2907 21.3323 42.5384 21.2821 42.7801 21.21C42.982 21.156 43.1675 21.0529 43.3201 20.91C43.3842 20.8477 43.4349 20.773 43.4693 20.6905C43.5037 20.608 43.521 20.5194 43.5201 20.43C43.5201 20.13 43.2901 19.9 42.8301 19.74C42.5722 19.6507 42.3082 19.5806 42.0401 19.53C41.7301 19.46 41.3901 19.39 41.0401 19.34C40.5001 19.24 40.0401 19.14 39.6201 19.05C39.2686 18.9774 38.931 18.8491 38.6201 18.67C38.4404 18.5396 38.2904 18.3726 38.1801 18.18C38.0676 17.9642 38.0125 17.7232 38.0201 17.48C38.015 17.215 38.0957 16.9554 38.2501 16.74C38.4226 16.5049 38.6444 16.3103 38.9001 16.17C39.2113 15.9915 39.5488 15.8633 39.9001 15.79C40.3047 15.7071 40.717 15.6668 41.1301 15.67C41.5291 15.6737 41.9271 15.7105 42.3201 15.78C42.723 15.8568 43.118 15.9706 43.5001 16.12C43.8612 16.2608 44.1985 16.4564 44.5001 16.7L43.9901 17.35C43.742 17.1663 43.4736 17.012 43.1901 16.89C42.8668 16.7488 42.5323 16.6351 42.1901 16.55C41.8624 16.4722 41.5269 16.4319 41.1901 16.43C40.932 16.4339 40.6746 16.4573 40.4201 16.5C40.1735 16.53 39.9317 16.5904 39.7001 16.68C39.51 16.746 39.3362 16.8517 39.1901 16.99C39.128 17.0455 39.0782 17.1132 39.0438 17.189C39.0094 17.2647 38.9911 17.3468 38.9901 17.43C38.9816 17.4905 38.9862 17.5522 39.0034 17.6108C39.0206 17.6694 39.0502 17.7237 39.0901 17.77C39.1703 17.8784 39.2771 17.9645 39.4001 18.02C39.649 18.1498 39.9149 18.2441 40.1901 18.3L41.3501 18.51C41.8201 18.58 42.2501 18.66 42.6601 18.75C43.0081 18.8144 43.3449 18.9289 43.6601 19.09C43.9049 19.2073 44.1202 19.3782 44.2901 19.59C44.432 19.7803 44.5059 20.0127 44.5001 20.25C44.5131 20.6455 44.3693 21.0301 44.1001 21.32C43.7973 21.6323 43.4181 21.8599 43.0001 21.98C42.4478 22.1369 41.8733 22.2011 41.3001 22.17Z" fill="#FFFFFC"/>
<path d="M57.32 22.17C56.788 22.1734 56.2576 22.113 55.74 21.99C55.2667 21.8748 54.8122 21.6929 54.39 21.45C53.9688 21.2147 53.5874 20.9143 53.26 20.56L53.84 19.78C54.2789 20.2652 54.8165 20.6509 55.4167 20.9113C56.0169 21.1718 56.6658 21.3009 57.32 21.29C57.8066 21.2961 58.2916 21.2321 58.76 21.1C59.1335 21.0016 59.4769 20.8127 59.76 20.55C59.8845 20.4346 59.9822 20.2933 60.0461 20.1361C60.11 19.9789 60.1387 19.8095 60.13 19.64C60.1394 19.4253 60.0681 19.2148 59.93 19.05C59.7738 18.893 59.5864 18.7704 59.38 18.69C59.1382 18.5912 58.8869 18.5174 58.63 18.47C58.3722 18.4169 58.1119 18.3768 57.85 18.35C57.59 18.35 57.38 18.3 57.19 18.27C56.7 18.2 56.24 18.11 55.81 18.01C55.417 17.9335 55.0366 17.8022 54.68 17.62C54.3755 17.4674 54.1116 17.2446 53.91 16.97C53.7159 16.6735 53.6181 16.3242 53.63 15.97C53.6277 15.6184 53.721 15.2727 53.9 14.97C54.093 14.6655 54.3529 14.4089 54.66 14.22C55.0292 13.999 55.4308 13.837 55.85 13.74C56.3124 13.633 56.7854 13.5793 57.26 13.58C57.7591 13.5752 58.2566 13.6357 58.74 13.76C59.1631 13.8646 59.5678 14.0332 59.94 14.26C60.287 14.4727 60.592 14.7473 60.84 15.07L60.23 15.77C59.7476 15.2094 59.1113 14.8026 58.4 14.6C58.0222 14.4965 57.6318 14.4461 57.24 14.45C56.8033 14.4438 56.3683 14.5045 55.95 14.63C55.6126 14.7202 55.301 14.888 55.04 15.12C54.8464 15.3011 54.7269 15.5477 54.7048 15.8119C54.6826 16.0761 54.7593 16.3391 54.92 16.55C55.0949 16.7367 55.3105 16.8804 55.55 16.97C55.8512 17.0808 56.1628 17.1612 56.48 17.21L57.63 17.39L58.89 17.57C59.2878 17.6413 59.6767 17.7553 60.05 17.91C60.3738 18.0496 60.6612 18.2617 60.89 18.53C61.112 18.8448 61.2213 19.2254 61.2 19.61C61.2058 20.1028 61.0356 20.5815 60.72 20.96C60.3612 21.3783 59.8941 21.6897 59.37 21.86C58.7111 22.0865 58.0165 22.1915 57.32 22.17Z" fill="#FFFFFC"/>
<path d="M65.3799 22.05V13.17H66.1999V22.05H65.3799ZM66.0399 20.35L66.1399 19.35L70.8499 15.74H72.1299L66.0399 20.35ZM71.1299 22.05L67.7299 18.43L68.3299 17.81L72.3299 22.05H71.1299Z" fill="#FFFFFC"/>
<path d="M77.49 24.81L79.14 21.87L79.21 22.67L75.21 15.78H76.21L78.49 19.74C78.73 20.18 78.94 20.58 79.12 20.93C79.2685 21.2316 79.389 21.5463 79.48 21.87L79.24 21.74C79.35 21.48 79.48 21.19 79.62 20.89C79.76 20.59 79.91 20.25 80.09 19.89L82.38 15.74H83.38L79.92 21.98L78.38 24.77L77.49 24.81Z" fill="#FFFFFC"/>
<path d="M96.1701 22.17C95.6414 22.1735 95.1143 22.113 94.6001 21.99C94.1237 21.8747 93.6659 21.693 93.2401 21.45C92.822 21.2145 92.444 20.9141 92.1201 20.56L92.6901 19.78C93.1457 20.2701 93.6971 20.6615 94.3101 20.93C94.9002 21.1719 95.5324 21.2942 96.1701 21.29C96.6568 21.2961 97.1417 21.2321 97.6101 21.1C97.983 21.0001 98.3261 20.8114 98.6101 20.55C98.733 20.4334 98.8296 20.2919 98.8934 20.1349C98.9572 19.978 98.9868 19.8093 98.9801 19.64C98.9909 19.4233 98.9154 19.2111 98.7701 19.05C98.6157 18.8908 98.4278 18.7678 98.2201 18.69C97.9793 18.5885 97.7276 18.5147 97.4701 18.47C97.2123 18.4169 96.952 18.3768 96.6901 18.35C96.4401 18.35 96.2201 18.3 96.0401 18.27C95.5501 18.2 95.0901 18.11 94.6601 18.01C94.2643 17.9318 93.8809 17.8006 93.5201 17.62C93.2186 17.467 92.958 17.2442 92.7601 16.97C92.5625 16.6746 92.4612 16.3253 92.4701 15.97C92.4678 15.6183 92.5612 15.2727 92.7401 14.97C92.9371 14.6652 93.2003 14.4088 93.5101 14.22C93.864 14.0063 94.2485 13.8478 94.6501 13.75C95.1127 13.6441 95.5856 13.5904 96.0601 13.59C96.5593 13.5839 97.057 13.6444 97.5401 13.77C97.9647 13.8701 98.3701 14.039 98.7401 14.27C99.0901 14.4825 99.3985 14.7569 99.6501 15.08L99.0401 15.78C98.7997 15.5011 98.5201 15.2586 98.2101 15.06C97.9006 14.8618 97.5637 14.7102 97.2101 14.61C96.8321 14.5071 96.4418 14.4567 96.0501 14.46C95.6102 14.4545 95.172 14.5152 94.7501 14.64C94.4147 14.735 94.1041 14.9022 93.8401 15.13C93.7353 15.2246 93.6517 15.3404 93.5948 15.4696C93.5379 15.5989 93.509 15.7388 93.5101 15.88C93.4972 16.126 93.5755 16.3682 93.7301 16.56C93.9009 16.7468 94.1133 16.8907 94.3501 16.98C94.6521 17.0883 94.9634 17.1687 95.2801 17.22L96.4301 17.4C96.8501 17.4467 97.2701 17.5067 97.6901 17.58C98.0882 17.6499 98.4773 17.7639 98.8501 17.92C99.1768 18.0545 99.4653 18.2674 99.6901 18.54C99.9157 18.8535 100.028 19.2342 100.01 19.62C100.016 20.1128 99.8457 20.5915 99.5301 20.97C99.1713 21.3883 98.7042 21.6997 98.1801 21.87C97.5329 22.0871 96.8525 22.1886 96.1701 22.17Z" fill="#FFFFFC"/>
<path d="M103.07 16.65V15.74H108.65V16.61L103.07 16.65ZM105.24 22.05V13.74H106.14V22.01L105.24 22.05Z" fill="#FFFFFC"/>
<path d="M115.68 22.17C115.142 22.1838 114.61 22.0525 114.14 21.79C113.709 21.5433 113.361 21.1744 113.14 20.73C112.901 20.2207 112.784 19.6624 112.8 19.1V15.74H113.71V18.74C113.696 19.1952 113.778 19.6483 113.95 20.07C114.091 20.4219 114.349 20.7148 114.68 20.9C115.05 21.1022 115.468 21.2023 115.89 21.19C116.248 21.1931 116.604 21.1322 116.94 21.01C117.256 20.8961 117.548 20.723 117.8 20.5C118.04 20.2903 118.238 20.0355 118.38 19.75C118.522 19.4645 118.594 19.149 118.59 18.83V15.74H119.49V22.01H118.6V20.52L118.75 20.43C118.629 20.7316 118.437 20.9993 118.19 21.21C117.877 21.491 117.514 21.7114 117.12 21.86C116.666 22.0593 116.176 22.1648 115.68 22.17Z" fill="#FFFFFC"/>
<path d="M126.98 22.17C126.316 22.1823 125.658 22.0385 125.06 21.75C124.528 21.4904 124.08 21.0846 123.77 20.58C123.457 20.0723 123.294 19.4864 123.3 18.89C123.29 18.2948 123.457 17.71 123.78 17.21C124.109 16.7088 124.569 16.3075 125.11 16.05C125.715 15.7603 126.379 15.6164 127.05 15.63C127.471 15.6287 127.89 15.6757 128.3 15.77C128.649 15.8604 128.985 15.9948 129.3 16.17C129.572 16.3324 129.818 16.5347 130.03 16.77C130.221 16.9837 130.365 17.2361 130.45 17.51L130.15 17.43V13.17H131.05V22.05H130.16V20.28H130.4C130.323 20.5492 130.182 20.7961 129.99 21C129.775 21.2468 129.518 21.4534 129.23 21.61C128.918 21.7959 128.581 21.9373 128.23 22.03C127.821 22.1315 127.401 22.1786 126.98 22.17ZM127.18 21.29C127.722 21.3018 128.26 21.1995 128.76 20.99C129.184 20.8033 129.55 20.5063 129.82 20.13C130.077 19.7635 130.216 19.3276 130.22 18.88C130.225 18.445 130.088 18.0202 129.83 17.67C129.554 17.2994 129.19 17.0038 128.77 16.81C128.273 16.5888 127.734 16.4796 127.19 16.49C126.666 16.4815 126.146 16.5908 125.67 16.81C125.253 17.003 124.891 17.2989 124.62 17.67C124.37 18.0237 124.237 18.4469 124.24 18.88C124.245 19.3227 124.381 19.7541 124.63 20.12C124.884 20.4876 125.229 20.7837 125.63 20.98C126.116 21.1995 126.647 21.3055 127.18 21.29Z" fill="#FFFFFC"/>
<path d="M136.49 14.34C136.398 14.349 136.305 14.3386 136.217 14.3093C136.129 14.28 136.048 14.2325 135.98 14.17C135.92 14.1079 135.873 14.0342 135.842 13.9534C135.811 13.8726 135.797 13.7864 135.8 13.7C135.796 13.612 135.81 13.524 135.841 13.4415C135.872 13.359 135.919 13.2836 135.98 13.22C136.049 13.1572 136.129 13.1089 136.217 13.0779C136.304 13.047 136.397 13.0341 136.49 13.04C136.58 13.0335 136.671 13.0453 136.757 13.0745C136.843 13.1037 136.922 13.1497 136.99 13.21C137.052 13.2751 137.1 13.3522 137.131 13.4364C137.161 13.5207 137.175 13.6104 137.17 13.7C137.173 13.7849 137.159 13.8696 137.128 13.9487C137.097 14.0278 137.05 14.0997 136.99 14.16C136.923 14.222 136.844 14.2699 136.758 14.3009C136.672 14.3318 136.581 14.3451 136.49 14.34ZM136.04 22.05V15.74H136.94V22.01L136.04 22.05Z" fill="#FFFFFC"/>
<path d="M145.34 22.17C144.592 22.1855 143.849 22.0423 143.16 21.75C142.57 21.51 142.061 21.1078 141.69 20.59C141.34 20.0929 141.154 19.4982 141.16 18.89C141.153 18.2878 141.339 17.699 141.69 17.21C142.063 16.6948 142.572 16.2933 143.16 16.05C144.553 15.4904 146.108 15.4904 147.5 16.05C148.085 16.2985 148.592 16.6991 148.97 17.21C149.322 17.699 149.507 18.2878 149.5 18.89C149.507 19.4953 149.322 20.0872 148.97 20.58C148.589 21.0916 148.078 21.4921 147.49 21.74C146.812 22.0325 146.079 22.179 145.34 22.17ZM145.34 21.31C145.905 21.3182 146.466 21.2128 146.99 21C147.448 20.824 147.849 20.5267 148.15 20.14C148.417 19.7777 148.56 19.3397 148.56 18.89C148.56 18.4403 148.417 18.0023 148.15 17.64C147.848 17.2563 147.447 16.9623 146.99 16.79C145.922 16.3767 144.738 16.3767 143.67 16.79C143.213 16.9623 142.812 17.2563 142.51 17.64C142.244 18.0023 142.1 18.4403 142.1 18.89C142.1 19.3397 142.244 19.7777 142.51 20.14C142.814 20.5289 143.218 20.8264 143.68 21C144.207 21.2138 144.772 21.3193 145.34 21.31Z" fill="#FFFFFC"/>
<path d="M1 0V25" stroke="#FFFFFC"/>
</svg>
