<svg xmlns="http://www.w3.org/2000/svg" viewBox="0 0 850.39 850.39"><defs><style>.cls-1{fill:#374863;}</style></defs><g id="圖層_2" data-name="圖層 2"><polygon class="cls-1" points="850.39 148.01 850.39 34.83 562.44 34.83 562.44 23.67 351.11 23.67 351.11 34.83 63.16 34.83 63.16 148.01 351.11 148.01 351.11 162.68 63.16 162.68 63.16 275.85 351.11 275.85 351.11 290.52 63.16 290.52 63.16 403.7 850.39 403.7 850.39 290.52 562.44 290.52 562.44 275.85 850.39 275.85 850.39 162.68 562.44 162.68 562.44 148.01 850.39 148.01"/><path class="cls-1" d="M63.16,417V558.36A202.67,202.67,0,0,1,0,690.55l43.35,99,16.13,37h.05l-.08-.18c1.24.06,2.48.07,3.72.1v.3c.86-.06,1.71-.17,2.56-.24h.45A180.39,180.39,0,0,0,226.45,689.24H682.82v19H580.49a205.2,205.2,0,0,1-57.58,117.22H808.23a42.17,42.17,0,0,0,42.16-42.17V417H63.16ZM682.82,615.71H230.73V597.62H682.82Zm0-91.62H230.73V506H682.82Z"/></g></svg>