<svg id="圖層_1" data-name="圖層 1" xmlns="http://www.w3.org/2000/svg" viewBox="0 0 850.39 850.39"><defs><style>.cls-1{fill:#374863;}.cls-2{fill:#fffffb;}</style></defs><circle class="cls-1" cx="425.2" cy="425.2" r="425.2"/><g id="圖層_2" data-name="圖層 2"><polygon class="cls-2" points="650.05 278.6 650.05 218.75 497.77 218.75 497.77 212.84 386.02 212.84 386.02 218.75 233.74 218.75 233.74 278.6 386.02 278.6 386.02 286.36 233.74 286.36 233.74 346.2 386.02 346.2 386.02 353.96 233.74 353.96 233.74 413.81 650.05 413.81 650.05 353.96 497.77 353.96 497.77 346.2 650.05 346.2 650.05 286.36 497.77 286.36 497.77 278.6 650.05 278.6"/><path class="cls-2" d="M233.74,420.85V495.6a107.2,107.2,0,0,1-33.4,69.91l22.93,52.35,8.53,19.57h0l0-.1c.66,0,1.31,0,2,.06v.16l1.35-.13h.24a95.39,95.39,0,0,0,84.75-72.6H561.43v10H507.32a108.51,108.51,0,0,1-30.45,62H627.75a22.29,22.29,0,0,0,22.3-22.3V420.85ZM561.43,525.93H322.36v-9.57H561.43Zm0-48.45H322.36v-9.57H561.43Z"/></g></svg>