<svg xmlns="http://www.w3.org/2000/svg" viewBox="0 0 176.01 24.89"><defs><style>.cls-1{fill:#fffffc;}</style></defs><g id="圖層_2" data-name="圖層 2"><polygon class="cls-1" points="25.88 4.23 25.88 0.78 17.12 0.78 17.12 0.44 10.69 0.44 10.69 0.78 1.92 0.78 1.92 4.23 10.69 4.23 10.69 4.68 1.92 4.68 1.92 8.12 10.69 8.12 10.69 8.57 1.92 8.57 1.92 12.01 25.88 12.01 25.88 8.57 17.12 8.57 17.12 8.12 25.88 8.12 25.88 4.68 17.12 4.68 17.12 4.23 25.88 4.23"/><path class="cls-1" d="M1.92,12.42v4.3a6.13,6.13,0,0,1-1.92,4l1.32,3,.49,1.13H2A5.47,5.47,0,0,0,6.6,21.57a5.22,5.22,0,0,0,.29-.87H20.78v.58H17.67a6.33,6.33,0,0,1-1.75,3.57H24.6a1.28,1.28,0,0,0,1.28-1.29V12.42h-24Zm18.86,6H7v-.55H20.78Zm0-2.78H7v-.55H20.78Z"/><path class="cls-1" d="M40,3.44h5v.4H34.51v-.4h4.94V2.57H35.68V2.18h3.77V1.4H35.31V1h4.14V.26H40V1h4.31V1.4H40v.78h3.81v.39H40Zm3.32,1.11V8.46a.47.47,0,0,1-.28.49L43,9a13.69,13.69,0,0,1-1.9.07,2.15,2.15,0,0,0-.21-.41c.84,0,1.41,0,1.69,0s.23-.11.24-.2v-1H36.83V9.1h-.56V4.55Zm-.58.4H36.83V5.8h5.94Zm-5.94,2.1h5.94V6.18H36.83Z"/><path class="cls-1" d="M64.47,8.5h5v.43H58.92V8.5h5V6.24h-3.7V5.8h8.24v.44h-4ZM65.2,2H63.11A3.49,3.49,0,0,1,62,4.19a5.94,5.94,0,0,1-2.65,1,1.05,1.05,0,0,0-.31-.39,4.61,4.61,0,0,0,2.8-1.25A3.16,3.16,0,0,0,62.51,2H59.78V3.34H59.2V1.52h4.68V.43h.59V1.52h4.75V3.1h-.57V2H65.77V4.12c0,.14.06.22.17.24a2.13,2.13,0,0,0,.4,0h1.83c.2,0,.33,0,.39-.16a2.84,2.84,0,0,0,.09-.67,2.65,2.65,0,0,0,.53.18c-.05.52-.17.85-.38,1a1.22,1.22,0,0,1-.57.11H66.32c-.55,0-.89-.08-1-.25a.77.77,0,0,1-.11-.44Z"/><path class="cls-1" d="M87.6,1.73v.42H83.15V1.73Zm-3.9,1.7V3h3.49v.41Zm0,1.27V4.3h3.49v.4Zm3.49.89V8.35h-3v.48H83.7V5.59Zm0-5.11v.4H83.77V.48ZM86.66,6H84.21V7.93h2.45ZM89.21.87v.75a2.68,2.68,0,0,1-1.55,2.46,1.86,1.86,0,0,0-.41-.33,2.31,2.31,0,0,0,1.4-2.14V.44h3.6v2.5c0,.13,0,.2.14.21h.93A.23.23,0,0,0,93.56,3a4,4,0,0,0,.06-.92,1.76,1.76,0,0,0,.52.17c0,.69-.13,1.11-.31,1.26a.74.74,0,0,1-.43.11h-.93c-.38,0-.61-.08-.7-.24a1,1,0,0,1-.07-.42V.87ZM93,4.3l.35.15A6.08,6.08,0,0,1,91.2,7.32a8.54,8.54,0,0,0,3,1.2,3,3,0,0,0-.4.4,9.46,9.46,0,0,1-3-1.29,9.82,9.82,0,0,1-3.15,1.3,1.79,1.79,0,0,0-.34-.42A9.43,9.43,0,0,0,90.34,7.3a6.45,6.45,0,0,1-1.85-2.37L89,4.8A5.83,5.83,0,0,0,90.76,7a5.64,5.64,0,0,0,1.86-2.25H87.75V4.32h5.13Z"/><path class="cls-1" d="M107.59,2.3V1.88h4.65V2.3Zm.55,1.29V3.18h3.67v.41Zm0,1.27v-.4h3.67v.4Zm3.62.89V8.51h-3.1V9h-.52V5.75Zm0-5.11V1h-3.6V.64Zm-.59,5.52h-2.56V8.09h2.56Zm7.41-2.54v.46h-2.82v5h-.58v-5h-3V3.62h3V.29h.58V3.62Z"/><path class="cls-1" d="M36,22.31v-8.4h4.57a4.94,4.94,0,0,1,1.64.24,2.19,2.19,0,0,1,1,.72A1.81,1.81,0,0,1,43.58,16a1.64,1.64,0,0,1-.45,1.18,2.44,2.44,0,0,1-1.28.7l0-.21a3.36,3.36,0,0,1,1.05.37,2.25,2.25,0,0,1,.78.72A1.93,1.93,0,0,1,44,19.85,2.24,2.24,0,0,1,43.75,21a2.41,2.41,0,0,1-.73.76,3.38,3.38,0,0,1-1,.43,5.27,5.27,0,0,1-1.12.13Zm.94-4.86h3.85a2.61,2.61,0,0,0,1-.16,1.35,1.35,0,0,0,.63-.45,1.16,1.16,0,0,0,.23-.71,1.08,1.08,0,0,0-.54-1,2.84,2.84,0,0,0-1.42-.32H36.93Zm0,3.95h3.91A3.5,3.5,0,0,0,42,21.24a1.64,1.64,0,0,0,.79-.52,1.27,1.27,0,0,0,.3-.86,1.13,1.13,0,0,0-.33-.85,1.83,1.83,0,0,0-.84-.48,3.5,3.5,0,0,0-1.09-.16H36.93Z"/><path class="cls-1" d="M48,22.31V13.43h.9v8.88Z"/><path class="cls-1" d="M56.63,22.43a3,3,0,0,1-1.54-.38,2.51,2.51,0,0,1-1-1.06,3.6,3.6,0,0,1-.34-1.63V16h.91v3a3.26,3.26,0,0,0,.24,1.33,1.66,1.66,0,0,0,.73.83,2.38,2.38,0,0,0,1.21.29,3,3,0,0,0,1-.18,2.65,2.65,0,0,0,.86-.51,2.44,2.44,0,0,0,.58-.75,2,2,0,0,0,.21-.92V16h.9v6.27h-.89l0-1.49.15-.09a2,2,0,0,1-.56.78,3.4,3.4,0,0,1-1.07.65A3.68,3.68,0,0,1,56.63,22.43Z"/><path class="cls-1" d="M67.81,22.43a6.54,6.54,0,0,1-2-.31,3.53,3.53,0,0,1-1.49-.9l.63-.62a3.45,3.45,0,0,0,1.21.75,4.31,4.31,0,0,0,1.55.27,7.63,7.63,0,0,0,.84,0,4.21,4.21,0,0,0,.74-.15,1.27,1.27,0,0,0,.54-.3.66.66,0,0,0,.2-.48q0-.45-.69-.69a5.57,5.57,0,0,0-.79-.21c-.31-.07-.65-.14-1-.19-.54-.1-1-.2-1.42-.29a3.37,3.37,0,0,1-1-.38,1.57,1.57,0,0,1-.44-.49,1.42,1.42,0,0,1-.16-.7,1.23,1.23,0,0,1,.23-.74,2,2,0,0,1,.65-.57,3.41,3.41,0,0,1,1-.38,5.9,5.9,0,0,1,1.23-.12,7.22,7.22,0,0,1,1.19.11,6.67,6.67,0,0,1,1.18.34,3.77,3.77,0,0,1,1,.58l-.51.65a4,4,0,0,0-.8-.46,6.29,6.29,0,0,0-1-.34,4.44,4.44,0,0,0-1-.12,5.12,5.12,0,0,0-.77.07,3,3,0,0,0-.72.18,1.42,1.42,0,0,0-.51.31.6.6,0,0,0-.2.44.43.43,0,0,0,.1.34.79.79,0,0,0,.31.25,3,3,0,0,0,.79.28l1.16.21c.47.07.9.15,1.31.24a3.66,3.66,0,0,1,1,.34,1.81,1.81,0,0,1,.63.5,1.06,1.06,0,0,1,.21.66,1.5,1.5,0,0,1-.4,1.07,2.49,2.49,0,0,1-1.1.66A5.19,5.19,0,0,1,67.81,22.43Z"/><path class="cls-1" d="M83.83,22.43a6.65,6.65,0,0,1-1.58-.18,5.15,5.15,0,0,1-1.35-.54,4.58,4.58,0,0,1-1.13-.89l.58-.78a4.59,4.59,0,0,0,3.48,1.51,5.07,5.07,0,0,0,1.44-.19,2.35,2.35,0,0,0,1-.55,1.16,1.16,0,0,0,.37-.91.86.86,0,0,0-.2-.59,1.59,1.59,0,0,0-.55-.36,3.81,3.81,0,0,0-.75-.22,7.8,7.8,0,0,0-.78-.12c-.26,0-.47-.05-.66-.08-.49-.07-.95-.16-1.38-.26a4.28,4.28,0,0,1-1.13-.39,2.15,2.15,0,0,1-.77-.65,1.72,1.72,0,0,1-.28-1,1.94,1.94,0,0,1,.27-1,2.37,2.37,0,0,1,.76-.75A4.13,4.13,0,0,1,82.36,14a6.21,6.21,0,0,1,1.41-.16,5.72,5.72,0,0,1,1.48.18,4.28,4.28,0,0,1,1.2.5,3.33,3.33,0,0,1,.9.81l-.61.7a3.78,3.78,0,0,0-1.83-1.17,4.23,4.23,0,0,0-1.16-.15,4.28,4.28,0,0,0-1.29.18,2.24,2.24,0,0,0-.91.49,1.07,1.07,0,0,0-.12,1.43,1.66,1.66,0,0,0,.63.42,4.82,4.82,0,0,0,.93.24l1.15.18,1.26.18a5.62,5.62,0,0,1,1.16.34,2.3,2.3,0,0,1,.84.62,1.71,1.71,0,0,1,.31,1.08,2.07,2.07,0,0,1-.48,1.35,3,3,0,0,1-1.35.9A5.76,5.76,0,0,1,83.83,22.43Z"/><path class="cls-1" d="M91.89,22.31V13.43h.82v8.88Zm.66-1.7.1-1L97.36,16h1.28Zm5.09,1.7-3.4-3.62.6-.62,4,4.24Z"/><path class="cls-1" d="M104,25.07l1.65-2.94.07.8-4-6.89h1L105,20c.24.44.45.84.63,1.19a5.49,5.49,0,0,1,.36.94l-.24-.13c.11-.26.24-.55.38-.85s.29-.64.47-1L108.89,16h1l-3.46,6.24-1.54,2.79Z"/><path class="cls-1" d="M122.68,22.43a6.56,6.56,0,0,1-1.57-.18,5.22,5.22,0,0,1-1.36-.54,4.53,4.53,0,0,1-1.12-.89l.57-.78a4.89,4.89,0,0,0,1.62,1.15,4.82,4.82,0,0,0,1.86.36,5.07,5.07,0,0,0,1.44-.19,2.39,2.39,0,0,0,1-.55,1.19,1.19,0,0,0,.37-.91.82.82,0,0,0-.21-.59,1.5,1.5,0,0,0-.55-.36,3.45,3.45,0,0,0-.75-.22,7.8,7.8,0,0,0-.78-.12c-.25,0-.47-.05-.65-.08-.49-.07-.95-.16-1.38-.26a4.49,4.49,0,0,1-1.14-.39,2.12,2.12,0,0,1-.76-.65,1.72,1.72,0,0,1-.29-1,1.94,1.94,0,0,1,.27-1,2.41,2.41,0,0,1,.77-.75,4.07,4.07,0,0,1,1.14-.47,6.34,6.34,0,0,1,1.41-.16,5.61,5.61,0,0,1,1.48.18,4,4,0,0,1,1.2.5,3.37,3.37,0,0,1,.91.81l-.61.7a3.81,3.81,0,0,0-.83-.72,3.75,3.75,0,0,0-1-.45,4.28,4.28,0,0,0-1.16-.15,4.39,4.39,0,0,0-1.3.18,2.39,2.39,0,0,0-.91.49,1,1,0,0,0-.33.75,1,1,0,0,0,.22.68,1.61,1.61,0,0,0,.62.42,5.23,5.23,0,0,0,.93.24l1.15.18q.63.07,1.26.18a5.44,5.44,0,0,1,1.16.34,2.15,2.15,0,0,1,.84.62,1.71,1.71,0,0,1,.32,1.08,2.07,2.07,0,0,1-.48,1.35,3,3,0,0,1-1.35.9A5.82,5.82,0,0,1,122.68,22.43Z"/><path class="cls-1" d="M129.58,16.91V16h5.58v.87Zm2.17,5.4V14h.9v8.27Z"/><path class="cls-1" d="M142.19,22.43a3,3,0,0,1-1.54-.38,2.51,2.51,0,0,1-1-1.06,3.6,3.6,0,0,1-.34-1.63V16h.91v3a3.26,3.26,0,0,0,.24,1.33,1.66,1.66,0,0,0,.73.83,2.38,2.38,0,0,0,1.21.29,3,3,0,0,0,1.05-.18,2.65,2.65,0,0,0,.86-.51,2.44,2.44,0,0,0,.58-.75,2,2,0,0,0,.21-.92V16h.9v6.27h-.89l0-1.49.15-.09a2,2,0,0,1-.56.78,3.4,3.4,0,0,1-1.07.65A3.68,3.68,0,0,1,142.19,22.43Z"/><path class="cls-1" d="M153.49,22.43a4.24,4.24,0,0,1-1.92-.42,3.12,3.12,0,0,1-1.29-1.17,3.16,3.16,0,0,1-.47-1.69,3,3,0,0,1,.48-1.68,3.27,3.27,0,0,1,1.33-1.16,4.29,4.29,0,0,1,1.94-.42,5.5,5.5,0,0,1,1.25.14,4.25,4.25,0,0,1,1,.4,3.17,3.17,0,0,1,.73.6,2,2,0,0,1,.42.74l-.3-.08V13.43h.9v8.88h-.89l0-1.77h.24a1.76,1.76,0,0,1-.41.72,2.76,2.76,0,0,1-.76.61,3.9,3.9,0,0,1-1,.42A4.78,4.78,0,0,1,153.49,22.43Zm.2-.88a3.87,3.87,0,0,0,1.58-.3,2.59,2.59,0,0,0,1.06-.86,2.21,2.21,0,0,0,.4-1.25,2,2,0,0,0-.39-1.21,2.77,2.77,0,0,0-1.06-.86,3.71,3.71,0,0,0-1.58-.32,3.5,3.5,0,0,0-1.52.32,2.71,2.71,0,0,0-1.05.86,2.07,2.07,0,0,0-.38,1.21,2.25,2.25,0,0,0,.39,1.24,2.61,2.61,0,0,0,1,.86A3.52,3.52,0,0,0,153.69,21.55Z"/><path class="cls-1" d="M163,14.6a.66.66,0,0,1-.51-.17.64.64,0,0,1-.18-.47.65.65,0,0,1,.18-.48.69.69,0,0,1,.51-.18.68.68,0,0,1,.5.17.66.66,0,0,1,.18.49.62.62,0,0,1-.18.46A.68.68,0,0,1,163,14.6Zm-.45,7.71V16h.9v6.27Z"/><path class="cls-1" d="M171.85,22.43a5.3,5.3,0,0,1-2.18-.42,3.37,3.37,0,0,1-1.47-1.16,2.9,2.9,0,0,1-.53-1.7,2.82,2.82,0,0,1,.53-1.68,3.44,3.44,0,0,1,1.47-1.16,5.82,5.82,0,0,1,4.34,0,3.56,3.56,0,0,1,1.47,1.16,2.82,2.82,0,0,1,.53,1.68,2.85,2.85,0,0,1-.53,1.69A3.58,3.58,0,0,1,174,22,5.27,5.27,0,0,1,171.85,22.43Zm0-.86a4.22,4.22,0,0,0,1.65-.31,2.7,2.7,0,0,0,1.16-.86,2.11,2.11,0,0,0,0-2.5,2.68,2.68,0,0,0-1.16-.85,4.6,4.6,0,0,0-3.32,0,2.68,2.68,0,0,0-1.16.85,2.11,2.11,0,0,0,0,2.5,2.68,2.68,0,0,0,1.17.86A4.23,4.23,0,0,0,171.85,21.57Z"/></g></svg>