<svg width="29" height="29" viewBox="0 0 29 29" fill="none" xmlns="http://www.w3.org/2000/svg">
<path fill-rule="evenodd" clip-rule="evenodd" d="M6.4942 17.08L4.22965 23.2622C2.21587 20.9041 1 17.844 1 14.5C1 7.04416 7.04416 1 14.5 1C21.9558 1 28 7.04416 28 14.5C28 17.8485 26.7809 20.9123 24.7622 23.2717L22.4942 17.08C22.1609 16.24 20.8942 14.56 18.4942 14.56H16.4942H12.4942H10.4942C8.0942 14.56 6.82754 16.24 6.4942 17.08ZM14.5 29C22.5081 29 29 22.5081 29 14.5C29 6.49187 22.5081 0 14.5 0C6.49187 0 0 6.49187 0 14.5C0 22.5081 6.49187 29 14.5 29ZM14.4941 13.6C17.2556 13.6 19.4941 11.451 19.4941 8.8C19.4941 6.14903 17.2556 4 14.4941 4C11.7327 4 9.49414 6.14903 9.49414 8.8C9.49414 11.451 11.7327 13.6 14.4941 13.6Z" fill="#374863"/>
</svg>
