<svg width="33" height="30" viewBox="0 0 33 30" fill="none" xmlns="http://www.w3.org/2000/svg">
<path fill-rule="evenodd" clip-rule="evenodd" d="M25 13.5C25 19.8513 19.8513 25 13.5 25C7.14873 25 2 19.8513 2 13.5C2 7.14873 7.14873 2 13.5 2C19.8513 2 25 7.14873 25 13.5ZM23.049 23.0429C20.6057 25.4877 17.2295 27 13.5 27C6.04416 27 0 20.9558 0 13.5C0 6.04416 6.04416 0 13.5 0C20.9558 0 27 6.04416 27 13.5C27 16.5068 26.017 19.2841 24.3548 21.5279L32.317 28.4948L31 30L23.049 23.0429Z" fill="#364761"/>
</svg>
