<svg width="26" height="25" viewBox="0 0 26 25" fill="none" xmlns="http://www.w3.org/2000/svg">
<path d="M25.8799 3.79V0.34H17.1199V0H10.6899V0.34H1.91992V3.79H10.6899V4.24H1.91992V7.68H10.6899V8.13H1.91992V11.57H25.8799V8.13H17.1199V7.68H25.8799V4.24H17.1199V3.79H25.8799Z" fill="#FFFFFC"/>
<path d="M1.92 11.98V16.28C1.80192 17.8063 1.11701 19.2332 0 20.28L1.32 23.28L1.81 24.41H2C2.99264 24.3337 3.94563 23.9879 4.75624 23.4099C5.56685 22.8319 6.20434 22.0436 6.6 21.13C6.722 20.8491 6.81904 20.558 6.89 20.26H20.78V20.84H17.67C17.4852 22.1871 16.8716 23.4388 15.92 24.41H24.6C24.7689 24.41 24.9362 24.3766 25.0922 24.3116C25.2481 24.2467 25.3897 24.1515 25.5086 24.0316C25.6276 23.9117 25.7217 23.7694 25.7855 23.6129C25.8492 23.4565 25.8813 23.2889 25.88 23.12V11.98H1.88H1.92ZM20.78 17.98H7V17.43H20.78V17.98ZM20.78 15.2H7V14.65H20.78V15.2Z" fill="#FFFFFC"/>
</svg>
