<svg id="圖層_1" data-name="圖層 1" xmlns="http://www.w3.org/2000/svg" viewBox="0 0 30 29.21"><defs><style>.cls-1{fill:#040000;}</style></defs><path class="cls-1" d="M29.93,11.67h0v-.08h0l0-.29,0-.2V11h0A11.38,11.38,0,0,0,26.91,5.3a14.93,14.93,0,0,0-5.82-3.84A17.7,17.7,0,0,0,15,.39,17.12,17.12,0,0,0,7,2.34C2.36,4.79-.36,9.29,0,13.81a11.81,11.81,0,0,0,2.65,6.43A14.25,14.25,0,0,0,8.3,24.36a21.17,21.17,0,0,0,4.18,1.12l.17,0c.4.08.5.19.53.23a.5.5,0,0,1,0,.32,2,2,0,0,1,0,.24,4.63,4.63,0,0,0-.19,2,1.4,1.4,0,0,0,1.41,1.3h0a5.22,5.22,0,0,0,2.35-.91l.09-.05c1.46-.86,2.83-1.82,3.87-2.57a34.06,34.06,0,0,0,6.76-5.89A11.6,11.6,0,0,0,29.93,11.67ZM9.34,16.24H6.75a.7.7,0,0,1-.7-.7V10.1a.71.71,0,0,1,1.41,0v4.73H9.34a.71.71,0,1,1,0,1.41Zm2.7-.72a.71.71,0,0,1-1.41,0V10.08a.71.71,0,0,1,1.41,0Zm6.4,0a.7.7,0,0,1-.49.67.76.76,0,0,1-.21,0,.71.71,0,0,1-.58-.29l-2.55-3.51v3.1a.71.71,0,0,1-1.41,0V10.24a.69.69,0,0,1,.49-.67.71.71,0,0,1,.79.25L17,13.34V10.08a.71.71,0,0,1,1.41,0Zm5.16.59H20.1a.7.7,0,0,1-.71-.7V10a.71.71,0,0,1,.71-.71h3.4a.71.71,0,0,1,0,1.42H20.81V12H23a.71.71,0,1,1,0,1.42H20.81v1.3H23.6a.71.71,0,1,1,0,1.41Z" transform="translate(0 -0.39)"/></svg>