<svg id="圖層_2" data-name="圖層 2" xmlns="http://www.w3.org/2000/svg" viewBox="0 0 860 860"><defs><style>.cls-1{fill:#f4f4f4;}</style></defs><polygon class="cls-1" points="860 149.68 860 35.23 568.79 35.23 568.79 23.93 355.08 23.93 355.08 35.23 63.87 35.23 63.87 149.68 355.08 149.68 355.08 164.51 63.87 164.51 63.87 278.97 355.08 278.97 355.08 293.8 63.87 293.8 63.87 408.26 860 408.26 860 293.8 568.79 293.8 568.79 278.97 860 278.97 860 164.51 568.79 164.51 568.79 149.68 860 149.68"/><path class="cls-1" d="M63.87,421.73V564.67A205,205,0,0,1,0,698.36L43.84,798.44l16.31,37.41h.06l-.08-.18c1.24.05,2.5.06,3.75.09v.31c.87-.06,1.73-.17,2.6-.24h.45A182.81,182.81,0,0,0,219.37,726,182,182,0,0,0,229,697H690.54V716.2H587.05a207.5,207.5,0,0,1-58.23,118.55H817.36A42.65,42.65,0,0,0,860,792.1V421.73H63.87ZM690.54,622.66H233.33V604.38H690.54Zm0-92.65H233.33V511.73H690.54Z"/></svg>